<mxfile host="app.diagrams.net" agent="Mozilla/5.0 (Macintosh; Intel Mac OS X 10_15_7) AppleWebKit/605.1.15 (KHTML, like Gecko) Version/18.1.1 Safari/605.1.15" version="25.0.1">
  <diagram name="Page-1" id="Iu1icYiPawuXiWPy81X3">
    <mxGraphModel dx="932" dy="1744" grid="1" gridSize="10" guides="1" tooltips="1" connect="1" arrows="1" fold="1" page="1" pageScale="1" pageWidth="827" pageHeight="1169" math="0" shadow="0">
      <root>
        <mxCell id="0" />
        <mxCell id="1" parent="0" />
        <mxCell id="Go6hVHOPvVt8wcMLxuZE-1" value="currencyconverter" style="swimlane;fontStyle=1;align=center;verticalAlign=top;childLayout=stackLayout;horizontal=1;startSize=26;horizontalStack=0;resizeParent=1;resizeParentMax=0;resizeLast=0;collapsible=1;marginBottom=0;whiteSpace=wrap;html=1;" vertex="1" parent="1">
          <mxGeometry x="10" y="-570" width="470" height="200" as="geometry" />
        </mxCell>
        <mxCell id="Go6hVHOPvVt8wcMLxuZE-2" value="&lt;div&gt;-exchangeRates:Dictionary&amp;lt;String,Double&amp;gt;&lt;br&gt;&lt;/div&gt;&lt;div&gt;-historicalRates:Dictionary&amp;lt;String,List&amp;lt;Double&amp;gt;&amp;gt;&lt;/div&gt;" style="text;strokeColor=none;fillColor=none;align=left;verticalAlign=top;spacingLeft=4;spacingRight=4;overflow=hidden;rotatable=0;points=[[0,0.5],[1,0.5]];portConstraint=eastwest;whiteSpace=wrap;html=1;" vertex="1" parent="Go6hVHOPvVt8wcMLxuZE-1">
          <mxGeometry y="26" width="470" height="64" as="geometry" />
        </mxCell>
        <mxCell id="Go6hVHOPvVt8wcMLxuZE-3" value="" style="line;strokeWidth=1;fillColor=none;align=left;verticalAlign=middle;spacingTop=-1;spacingLeft=3;spacingRight=3;rotatable=0;labelPosition=right;points=[];portConstraint=eastwest;strokeColor=inherit;" vertex="1" parent="Go6hVHOPvVt8wcMLxuZE-1">
          <mxGeometry y="90" width="470" height="8" as="geometry" />
        </mxCell>
        <mxCell id="Go6hVHOPvVt8wcMLxuZE-4" value="+addExchangeRoot(currencycode: string, rate: double): void&lt;div&gt;+convert(amount : Double,fromCurrency: String, toCurrency: string): double&lt;/div&gt;&lt;div&gt;+updateExchangeRate(currencycode : string, rate: double): void&lt;/div&gt;&lt;div&gt;+getExchangeRate(currencycode: string); double&lt;/div&gt;&lt;div&gt;+getHistoricalrates(currencycode: string); List&amp;lt;Double&amp;gt;&lt;/div&gt;&lt;div&gt;+calculateAverageRate(currencycode: String): double&lt;/div&gt;" style="text;strokeColor=none;fillColor=none;align=left;verticalAlign=top;spacingLeft=4;spacingRight=4;overflow=hidden;rotatable=0;points=[[0,0.5],[1,0.5]];portConstraint=eastwest;whiteSpace=wrap;html=1;" vertex="1" parent="Go6hVHOPvVt8wcMLxuZE-1">
          <mxGeometry y="98" width="470" height="102" as="geometry" />
        </mxCell>
        <mxCell id="Go6hVHOPvVt8wcMLxuZE-10" value="currency" style="swimlane;fontStyle=1;align=center;verticalAlign=top;childLayout=stackLayout;horizontal=1;startSize=26;horizontalStack=0;resizeParent=1;resizeParentMax=0;resizeLast=0;collapsible=1;marginBottom=0;whiteSpace=wrap;html=1;" vertex="1" parent="1">
          <mxGeometry x="60" y="-330" width="280" height="124" as="geometry" />
        </mxCell>
        <mxCell id="Go6hVHOPvVt8wcMLxuZE-11" value="-code:String&lt;div&gt;-symbol:String&lt;/div&gt;&lt;div&gt;-name:String&lt;/div&gt;&lt;div&gt;-regiom:String&lt;/div&gt;" style="text;strokeColor=none;fillColor=none;align=left;verticalAlign=top;spacingLeft=4;spacingRight=4;overflow=hidden;rotatable=0;points=[[0,0.5],[1,0.5]];portConstraint=eastwest;whiteSpace=wrap;html=1;" vertex="1" parent="Go6hVHOPvVt8wcMLxuZE-10">
          <mxGeometry y="26" width="280" height="64" as="geometry" />
        </mxCell>
        <mxCell id="Go6hVHOPvVt8wcMLxuZE-12" value="" style="line;strokeWidth=1;fillColor=none;align=left;verticalAlign=middle;spacingTop=-1;spacingLeft=3;spacingRight=3;rotatable=0;labelPosition=right;points=[];portConstraint=eastwest;strokeColor=inherit;" vertex="1" parent="Go6hVHOPvVt8wcMLxuZE-10">
          <mxGeometry y="90" width="280" height="8" as="geometry" />
        </mxCell>
        <mxCell id="Go6hVHOPvVt8wcMLxuZE-13" value="+displayInfo( ):String" style="text;strokeColor=none;fillColor=none;align=left;verticalAlign=top;spacingLeft=4;spacingRight=4;overflow=hidden;rotatable=0;points=[[0,0.5],[1,0.5]];portConstraint=eastwest;whiteSpace=wrap;html=1;" vertex="1" parent="Go6hVHOPvVt8wcMLxuZE-10">
          <mxGeometry y="98" width="280" height="26" as="geometry" />
        </mxCell>
        <mxCell id="Go6hVHOPvVt8wcMLxuZE-14" value="transaction" style="swimlane;fontStyle=1;align=center;verticalAlign=top;childLayout=stackLayout;horizontal=1;startSize=26;horizontalStack=0;resizeParent=1;resizeParentMax=0;resizeLast=0;collapsible=1;marginBottom=0;whiteSpace=wrap;html=1;" vertex="1" parent="1">
          <mxGeometry x="470" y="-330" width="280" height="170" as="geometry" />
        </mxCell>
        <mxCell id="Go6hVHOPvVt8wcMLxuZE-15" value="-transactionId: String&lt;div&gt;-amount:Double&lt;/div&gt;&lt;div&gt;-fromCurrency:String&lt;/div&gt;&lt;div&gt;-toCurrency:String&lt;/div&gt;&lt;div&gt;-date:Date&lt;/div&gt;" style="text;strokeColor=none;fillColor=none;align=left;verticalAlign=top;spacingLeft=4;spacingRight=4;overflow=hidden;rotatable=0;points=[[0,0.5],[1,0.5]];portConstraint=eastwest;whiteSpace=wrap;html=1;" vertex="1" parent="Go6hVHOPvVt8wcMLxuZE-14">
          <mxGeometry y="26" width="280" height="94" as="geometry" />
        </mxCell>
        <mxCell id="Go6hVHOPvVt8wcMLxuZE-16" value="" style="line;strokeWidth=1;fillColor=none;align=left;verticalAlign=middle;spacingTop=-1;spacingLeft=3;spacingRight=3;rotatable=0;labelPosition=right;points=[];portConstraint=eastwest;strokeColor=inherit;" vertex="1" parent="Go6hVHOPvVt8wcMLxuZE-14">
          <mxGeometry y="120" width="280" height="8" as="geometry" />
        </mxCell>
        <mxCell id="Go6hVHOPvVt8wcMLxuZE-17" value="+calculateConvertedAmount(rate: Double): Double&lt;div&gt;+displayTransactionDetails( ):String&lt;/div&gt;" style="text;strokeColor=none;fillColor=none;align=left;verticalAlign=top;spacingLeft=4;spacingRight=4;overflow=hidden;rotatable=0;points=[[0,0.5],[1,0.5]];portConstraint=eastwest;whiteSpace=wrap;html=1;" vertex="1" parent="Go6hVHOPvVt8wcMLxuZE-14">
          <mxGeometry y="128" width="280" height="42" as="geometry" />
        </mxCell>
      </root>
    </mxGraphModel>
  </diagram>
</mxfile>
